<svg xmlns="http://www.w3.org/2000/svg" viewBox="0 0 64 70" width="64" height="70">
  <!-- Speech bubble antenna -->
  <rect x="24" y="0" width="16" height="11" rx="3" fill="currentColor"/>
  <polygon points="30,11 32,16 34,11" fill="currentColor"/>
  <!-- Bubble dots -->
  <circle cx="29" cy="5" r="1" fill="#FFFFFF"/>
  <circle cx="32" cy="5" r="1" fill="#FFFFFF"/>
  <circle cx="35" cy="5" r="1" fill="#FFFFFF"/>
  <!-- Head -->
  <rect x="18" y="18" width="28" height="22" rx="4" fill="currentColor"/>
  <!-- Eyes -->
  <rect x="25" y="25" width="5" height="5" rx="1" fill="#FFFFFF"/>
  <rect x="34" y="25" width="5" height="5" rx="1" fill="#FFFFFF"/>
  <!-- Body -->
  <rect x="22" y="43" width="20" height="16" rx="3" fill="currentColor"/>
  <!-- Arms -->
  <rect x="14" y="45" width="6" height="10" rx="2" fill="currentColor"/>
  <rect x="44" y="45" width="6" height="10" rx="2" fill="currentColor"/>
  <!-- Legs -->
  <rect x="25" y="61" width="5" height="8" rx="2" fill="currentColor"/>
  <rect x="34" y="61" width="5" height="8" rx="2" fill="currentColor"/>
  <!-- Chest: tag/bracket -->
  <text x="27" y="54" font-family="monospace" font-size="11" fill="#FFFFFF">&lt;/&gt;</text>
</svg>
