<svg xmlns="http://www.w3.org/2000/svg" viewBox="0 0 64 70" width="64" height="70">
  <!-- Crown / strategy points -->
  <polygon points="20,18 24,8 28,15 32,5 36,15 40,8 44,18" fill="currentColor"/>
  <!-- Head -->
  <rect x="18" y="18" width="28" height="22" rx="4" fill="currentColor"/>
  <!-- Eyes -->
  <rect x="25" y="25" width="5" height="5" rx="1" fill="#FFFFFF"/>
  <rect x="34" y="25" width="5" height="5" rx="1" fill="#FFFFFF"/>
  <!-- Body -->
  <rect x="22" y="43" width="20" height="16" rx="3" fill="currentColor"/>
  <!-- Arms -->
  <rect x="14" y="45" width="6" height="10" rx="2" fill="currentColor"/>
  <rect x="44" y="45" width="6" height="10" rx="2" fill="currentColor"/>
  <!-- Legs -->
  <rect x="25" y="61" width="5" height="8" rx="2" fill="currentColor"/>
  <rect x="34" y="61" width="5" height="8" rx="2" fill="currentColor"/>
  <!-- Chest: crosshair -->
  <line x1="32" y1="47" x2="32" y2="55" stroke="#FFFFFF" stroke-width="1.2"/>
  <line x1="28" y1="51" x2="36" y2="51" stroke="#FFFFFF" stroke-width="1.2"/>
</svg>
