<svg xmlns="http://www.w3.org/2000/svg" viewBox="0 0 64 70" width="64" height="70">
  <!-- Shield antenna -->
  <path d="M27,4 L32,0 L37,4 L37,14 Q32,18 27,14 Z" fill="currentColor"/>
  <!-- Head -->
  <rect x="18" y="18" width="28" height="22" rx="4" fill="currentColor"/>
  <!-- Eyes -->
  <rect x="25" y="25" width="5" height="5" rx="1" fill="#FFFFFF"/>
  <rect x="34" y="25" width="5" height="5" rx="1" fill="#FFFFFF"/>
  <!-- Body -->
  <rect x="22" y="43" width="20" height="16" rx="3" fill="currentColor"/>
  <!-- Arms -->
  <rect x="14" y="45" width="6" height="10" rx="2" fill="currentColor"/>
  <rect x="44" y="45" width="6" height="10" rx="2" fill="currentColor"/>
  <!-- Legs -->
  <rect x="25" y="61" width="5" height="8" rx="2" fill="currentColor"/>
  <rect x="34" y="61" width="5" height="8" rx="2" fill="currentColor"/>
  <!-- Chest: checkmark -->
  <polyline points="28,51 31,55 37,47" fill="none" stroke="#FFFFFF" stroke-width="1.5" stroke-linecap="round" stroke-linejoin="round"/>
</svg>
